<svg width="40" height="40" viewBox="0 0 40 40" fill="none" xmlns="http://www.w3.org/2000/svg">
<g clip-path="url(#clip0_18_810)">
<path d="M7.08333 0H32.9167C36.8333 0 40 3.24786 40 7.26496V32.735C40 36.7521 36.8333 40 32.9167 40H7.08333C3.16667 40 0 36.7521 0 32.735V7.26496C0 3.24786 3.16667 0 7.08333 0Z" fill="#330000"/>
<path d="M19.3833 23.9999H13.1833L11.9166 28.017C11.8833 28.1709 11.75 28.2734 11.6 28.2564H8.46664C8.2833 28.2564 8.2333 28.1538 8.2833 27.9487L13.65 12.1025C13.7 11.9316 13.75 11.7435 13.8166 11.5384C13.8833 11.1794 13.9166 10.8034 13.9166 10.4273C13.9 10.3418 13.9666 10.2564 14.05 10.2393C14.0666 10.2393 14.0833 10.2393 14.1 10.2393H18.3666C18.5 10.2393 18.5666 10.2905 18.5833 10.376L24.6666 27.9828C24.7166 28.1709 24.6666 28.2564 24.5 28.2564H21.0166C20.9 28.2734 20.7833 28.188 20.75 28.0683L19.3833 23.9999ZM14.15 20.5299H18.3833C18.2833 20.1709 18.15 19.7435 18 19.2991C17.85 18.8375 17.7 18.3418 17.55 17.829C17.3833 17.2991 17.2333 16.7863 17.0666 16.2564C16.9 15.7264 16.75 15.2307 16.6166 14.735C16.4833 14.2564 16.3666 13.8119 16.25 13.4017H16.2166C16.0666 14.1367 15.8833 14.8717 15.65 15.6068C15.4 16.4273 15.15 17.282 14.8833 18.1367C14.65 19.0085 14.4 19.8119 14.15 20.5299Z" fill="#FF9A00"/>
<path d="M28.3 13.1624C27.75 13.1795 27.2167 12.9573 26.8167 12.5641C26.4334 12.1368 26.2334 11.5727 26.25 10.9915C26.2334 10.4103 26.45 9.86328 26.85 9.47012C27.25 9.07695 27.7834 8.87183 28.3334 8.87183C28.9834 8.87183 29.4834 9.07695 29.85 9.47012C30.2167 9.88037 30.4167 10.4274 30.4 10.9915C30.4167 11.5727 30.2167 12.1368 29.8167 12.5641C29.4334 12.9744 28.8667 13.1966 28.3 13.1624ZM26.4334 28V14.8376C26.4334 14.6667 26.5 14.5983 26.65 14.5983H29.95C30.1 14.5983 30.1667 14.6838 30.1667 14.8376V28C30.1667 28.1881 30.1 28.2735 29.95 28.2735H26.6834C26.5167 28.2735 26.4334 28.171 26.4334 28Z" fill="#FF9A00"/>
</g>
<defs>
<clipPath id="clip0_18_810">
<rect width="40" height="40" fill="white"/>
</clipPath>
</defs>
</svg>
