<svg width="40" height="40" viewBox="0 0 40 40" fill="none" xmlns="http://www.w3.org/2000/svg">
<g clip-path="url(#clip0_18_778)">
<path d="M7.08333 0H32.9167C36.8333 0 40 3.24786 40 7.26496V32.735C40 36.7521 36.8333 40 32.9167 40H7.08333C3.16667 40 0 36.7521 0 32.735V7.26496C0 3.24786 3.16667 0 7.08333 0Z" fill="#001E36"/>
<path d="M9.00009 28.0512V10.4615C9.00009 10.3418 9.05009 10.2735 9.16676 10.2735C9.45009 10.2735 9.71676 10.2735 10.1001 10.2564C10.5001 10.2393 10.9168 10.2393 11.3668 10.2222C11.8168 10.2051 12.3001 10.2051 12.8168 10.188C13.3334 10.1709 13.8334 10.1709 14.3334 10.1709C15.7001 10.1709 16.8334 10.3418 17.7668 10.7008C18.6001 10.9914 19.3668 11.47 20.0001 12.1025C20.5334 12.6495 20.9501 13.3162 21.2168 14.0512C21.4668 14.7692 21.6001 15.5042 21.6001 16.2735C21.6001 17.7435 21.2668 18.9572 20.6001 19.9145C19.9334 20.8718 19.0001 21.5897 17.9168 22C16.7834 22.4273 15.5334 22.5812 14.1668 22.5812C13.7668 22.5812 13.5001 22.5812 13.3334 22.5641C13.1668 22.547 12.9334 22.547 12.6168 22.547V28.0341C12.6334 28.1538 12.5501 28.2564 12.4334 28.2735C12.4168 28.2735 12.4001 28.2735 12.3668 28.2735H9.20009C9.06676 28.2735 9.00009 28.2051 9.00009 28.0512ZM12.6334 13.5726V19.3162C12.8668 19.3333 13.0834 19.3504 13.2834 19.3504H14.1668C14.8168 19.3504 15.4668 19.2478 16.0834 19.0427C16.6168 18.8888 17.0834 18.5641 17.4501 18.1367C17.8001 17.7094 17.9668 17.1282 17.9668 16.376C17.9834 15.8461 17.8501 15.3162 17.5834 14.8547C17.3001 14.4102 16.9001 14.0683 16.4168 13.8803C15.8001 13.6239 15.1334 13.5213 14.4501 13.5384C14.0168 13.5384 13.6334 13.5384 13.3168 13.5555C12.9834 13.5384 12.7501 13.5555 12.6334 13.5726Z" fill="#31A8FF"/>
<path d="M32.0001 18.2735C31.5001 18 30.9668 17.812 30.4001 17.6923C29.7835 17.5556 29.1668 17.4701 28.5335 17.4701C28.2001 17.453 27.8501 17.5043 27.5335 17.5898C27.3168 17.641 27.1335 17.7607 27.0168 17.9316C26.9335 18.0684 26.8835 18.2393 26.8835 18.3932C26.8835 18.547 26.9501 18.7009 27.0501 18.8376C27.2001 19.0257 27.4001 19.1795 27.6168 19.2992C28.0001 19.5043 28.4001 19.6923 28.8001 19.8633C29.7001 20.171 30.5668 20.5983 31.3668 21.1111C31.9168 21.4701 32.3668 21.9487 32.6835 22.5299C32.9501 23.0769 33.0835 23.6752 33.0668 24.2906C33.0835 25.094 32.8501 25.8975 32.4168 26.5641C31.9501 27.2479 31.3001 27.7778 30.5501 28.0855C29.7335 28.4445 28.7335 28.6325 27.5335 28.6325C26.7668 28.6325 26.0168 28.5641 25.2668 28.4103C24.6835 28.3077 24.1001 28.1197 23.5668 27.8633C23.4501 27.7949 23.3668 27.6752 23.3835 27.5385V24.5641C23.3835 24.5128 23.4001 24.4445 23.4501 24.4103C23.5001 24.3761 23.5501 24.3932 23.6001 24.4274C24.2501 24.8205 24.9335 25.094 25.6668 25.265C26.3001 25.4359 26.9668 25.5214 27.6335 25.5214C28.2668 25.5214 28.7168 25.4359 29.0168 25.2821C29.2835 25.1624 29.4668 24.8718 29.4668 24.5641C29.4668 24.3248 29.3335 24.1026 29.0668 23.8804C28.8001 23.6581 28.2501 23.4017 27.4335 23.0769C26.5835 22.7693 25.8001 22.359 25.0668 21.8462C24.5501 21.4701 24.1168 20.9744 23.8001 20.3932C23.5335 19.8462 23.4001 19.2479 23.4168 18.6496C23.4168 17.9146 23.6168 17.2137 23.9835 16.5812C24.4001 15.8975 25.0168 15.3504 25.7335 15.0086C26.5168 14.5983 27.5001 14.4103 28.6835 14.4103C29.3668 14.4103 30.0668 14.4616 30.7501 14.5641C31.2501 14.6325 31.7335 14.7693 32.1835 14.9573C32.2501 14.9744 32.3168 15.0428 32.3501 15.1111C32.3668 15.1795 32.3835 15.2479 32.3835 15.3163V18.1026C32.3835 18.171 32.3501 18.2393 32.3001 18.2735C32.1501 18.3077 32.0668 18.3077 32.0001 18.2735Z" fill="#31A8FF"/>
</g>
<defs>
<clipPath id="clip0_18_778">
<rect width="40" height="40" fill="white"/>
</clipPath>
</defs>
</svg>
