<svg width="52" height="46" viewBox="0 0 52 46" fill="none" xmlns="http://www.w3.org/2000/svg">
<path d="M1.92004 4.32004C3.36004 5.52004 4.80004 6.72004 7.92004 6.72004C13.92 6.72004 13.92 1.92004 19.92 1.92004C26.16 1.92004 25.68 6.72004 31.92 6.72004C37.92 6.72004 37.92 1.92004 43.92 1.92004C47.04 1.92004 48.48 3.12004 49.92 4.32004" stroke="#386CA0" stroke-width="3.84" stroke-linecap="round" stroke-linejoin="round"/>
<path d="M1.92004 16.4533C3.36004 17.6533 4.80004 18.8533 7.92004 18.8533C13.92 18.8533 13.92 14.0533 19.92 14.0533C26.16 14.0533 25.68 18.8533 31.92 18.8533C37.92 18.8533 37.92 14.0533 43.92 14.0533C47.04 14.0533 48.48 15.2533 49.92 16.4533" stroke="#BEBEBE" stroke-width="3.84" stroke-linecap="round" stroke-linejoin="round"/>
<path d="M1.92004 28.5866C3.36004 29.7866 4.80004 30.9866 7.92004 30.9866C13.92 30.9866 13.92 26.1866 19.92 26.1866C26.16 26.1866 25.68 30.9866 31.92 30.9866C37.92 30.9866 37.92 26.1866 43.92 26.1866C47.04 26.1866 48.48 27.3866 49.92 28.5866" stroke="#BEBEBE" stroke-width="3.84" stroke-linecap="round" stroke-linejoin="round"/>
<path d="M1.92004 40.7201C3.36004 41.9201 4.80004 43.1201 7.92004 43.1201C13.92 43.1201 13.92 38.3201 19.92 38.3201C26.16 38.3201 25.68 43.1201 31.92 43.1201C37.92 43.1201 37.92 38.3201 43.92 38.3201C47.04 38.3201 48.48 39.5201 49.92 40.7201" stroke="#BEBEBE" stroke-width="3.84" stroke-linecap="round" stroke-linejoin="round"/>
</svg>
