<svg width="52" height="46" viewBox="0 0 52 46" fill="none" xmlns="http://www.w3.org/2000/svg">
<path d="M1.92004 4.31992C3.36004 5.51992 4.80004 6.71992 7.92004 6.71992C13.92 6.71992 13.92 1.91992 19.92 1.91992C26.16 1.91992 25.68 6.71992 31.92 6.71992C37.92 6.71992 37.92 1.91992 43.92 1.91992C47.04 1.91992 48.48 3.11992 49.92 4.31992" stroke="#BEBEBE" stroke-width="3.84" stroke-linecap="round" stroke-linejoin="round"/>
<path d="M1.92004 16.4532C3.36004 17.6532 4.80004 18.8532 7.92004 18.8532C13.92 18.8532 13.92 14.0532 19.92 14.0532C26.16 14.0532 25.68 18.8532 31.92 18.8532C37.92 18.8532 37.92 14.0532 43.92 14.0532C47.04 14.0532 48.48 15.2532 49.92 16.4532" stroke="#386CA0" stroke-width="3.84" stroke-linecap="round" stroke-linejoin="round"/>
<path d="M1.92004 28.5865C3.36004 29.7865 4.80004 30.9865 7.92004 30.9865C13.92 30.9865 13.92 26.1865 19.92 26.1865C26.16 26.1865 25.68 30.9865 31.92 30.9865C37.92 30.9865 37.92 26.1865 43.92 26.1865C47.04 26.1865 48.48 27.3865 49.92 28.5865" stroke="#BEBEBE" stroke-width="3.84" stroke-linecap="round" stroke-linejoin="round"/>
<path d="M1.92004 40.7201C3.36004 41.9201 4.80004 43.1201 7.92004 43.1201C13.92 43.1201 13.92 38.3201 19.92 38.3201C26.16 38.3201 25.68 43.1201 31.92 43.1201C37.92 43.1201 37.92 38.3201 43.92 38.3201C47.04 38.3201 48.48 39.5201 49.92 40.7201" stroke="#BEBEBE" stroke-width="3.84" stroke-linecap="round" stroke-linejoin="round"/>
</svg>
