<svg width="853" height="299" viewBox="0 0 853 299" fill="none" xmlns="http://www.w3.org/2000/svg">
<path d="M837.558 113.883C838.201 124.487 839.165 136.537 840.45 150.033C841.735 163.529 844.949 176.865 850.09 190.039C852.018 194.538 852.5 198.876 851.536 203.053C850.893 206.909 849.287 210.123 846.716 212.693C844.467 215.264 841.575 216.871 838.04 217.513C834.505 218.156 830.81 217.192 826.954 214.621C821.491 211.729 817.153 206.267 813.94 198.233C810.727 190.2 808.156 181.524 806.228 172.205C804.3 162.887 803.015 153.568 802.372 144.249C801.729 134.931 801.247 127.379 800.926 121.595C800.605 112.598 800.283 103.601 799.962 94.6035C799.641 85.2848 799.801 75.9662 800.444 66.6475C801.087 57.0075 802.372 47.5281 804.3 38.2095C806.228 28.5695 809.441 19.0901 813.94 9.77146C815.547 5.91547 818.439 3.18414 822.616 1.57747C827.115 -0.350541 831.613 -0.511217 836.112 1.09545C839.968 2.70213 842.057 5.43347 842.378 9.28946C843.021 12.8241 842.86 16.6801 841.896 20.8575C839.968 31.4615 838.522 40.9408 837.558 49.2955C836.915 57.6501 836.433 65.5228 836.112 72.9135C836.112 79.9828 836.273 86.8915 836.594 93.6395C836.915 100.066 837.237 106.814 837.558 113.883Z" fill="black"/>
<path d="M663.176 149.551C662.533 142.161 661.89 134.609 661.248 126.897C660.926 119.185 661.248 111.473 662.212 103.761C662.854 99.2626 663.497 94.9246 664.14 90.7473C665.104 86.2486 666.389 81.9106 667.996 77.7333C668.96 75.8053 670.406 74.3593 672.334 73.3953C674.583 72.4313 676.993 71.7886 679.564 71.4673C682.134 71.146 684.544 71.3066 686.794 71.9493C689.364 72.592 691.132 73.7166 692.096 75.3233C695.309 79.5006 696.916 85.606 696.916 93.6393C697.237 101.673 697.398 108.742 697.398 114.847C697.398 122.238 697.558 130.593 697.88 139.911C698.522 148.909 700.29 156.621 703.182 163.047C704.788 165.939 706.556 168.189 708.484 169.795C710.412 171.081 713.143 171.563 716.678 171.241C721.498 171.241 725.354 168.831 728.246 164.011C731.459 159.191 733.869 153.407 735.476 146.659C737.404 139.911 738.689 133.163 739.332 126.415C740.296 119.346 740.778 113.562 740.778 109.063C740.778 105.85 740.617 102.155 740.296 97.9773C739.974 93.4786 739.974 89.3013 740.296 85.4453C740.938 81.5893 742.384 78.376 744.634 75.8053C746.883 72.9133 750.578 71.4673 755.72 71.4673C759.254 71.146 762.307 71.7886 764.878 73.3953C767.77 75.002 769.537 76.6086 770.18 78.2153C771.786 83.678 772.59 89.7833 772.59 96.5313C772.911 103.279 773.072 109.385 773.072 114.847C773.072 121.274 772.59 128.825 771.626 137.501C770.983 145.856 770.019 151.801 768.734 155.335C766.163 162.083 763.753 168.671 761.504 175.097C759.576 181.524 755.398 187.308 748.972 192.449C740.296 199.197 730.977 202.893 721.016 203.535C711.054 204.178 701.896 202.411 693.542 198.233C685.187 193.735 678.118 187.308 672.334 178.953C666.55 170.599 663.497 160.798 663.176 149.551Z" fill="black"/>
<path d="M636.477 168.831C638.727 168.189 640.976 167.867 643.225 167.867C645.796 167.546 647.885 167.546 649.491 167.867C656.882 168.831 659.613 172.527 657.685 178.953C657.043 180.881 655.436 182.809 652.865 184.737C650.616 186.665 648.206 188.433 645.635 190.039C641.779 192.289 637.12 194.538 631.657 196.787C626.195 198.715 620.411 200.322 614.305 201.607C608.2 202.893 601.934 203.535 595.507 203.535C589.402 203.535 583.618 202.571 578.155 200.643C566.587 196.466 557.269 190.2 550.199 181.845C543.451 173.491 539.113 163.69 537.185 152.443C532.687 150.837 528.349 149.069 524.171 147.141C520.315 145.213 516.941 142.161 514.049 137.983C509.229 131.557 507.944 126.576 510.193 123.041C512.443 119.185 519.191 118.543 530.437 121.113C534.936 121.756 537.667 121.595 538.631 120.631C540.881 109.385 544.415 99.4233 549.235 90.7473C554.055 82.0713 559.839 75.1627 566.587 70.0213C573.657 64.88 581.851 61.6667 591.169 60.3813C600.488 59.096 610.771 60.2207 622.017 63.7553C632.621 68.5753 639.369 74.8413 642.261 82.5533C645.153 89.944 645.314 97.4953 642.743 105.207C640.494 112.919 636.156 120.471 629.729 127.861C623.303 134.931 616.233 140.554 608.521 144.731C603.059 147.302 597.596 149.712 592.133 151.961C586.992 153.889 581.529 155.175 575.745 155.817C577.673 159.352 579.923 162.405 582.493 164.975C585.064 167.546 588.117 169.474 591.651 170.759C599.042 173.651 606.593 174.776 614.305 174.133C622.339 173.491 629.729 171.723 636.477 168.831ZM584.421 95.5673C581.851 96.8527 579.28 98.9413 576.709 101.833C574.139 104.725 571.889 107.778 569.961 110.991C568.355 113.883 567.23 116.775 566.587 119.667C566.266 122.238 567.069 124.005 568.997 124.969C572.211 126.897 576.388 127.379 581.529 126.415C586.671 125.451 591.651 123.523 596.471 120.631C601.291 117.739 605.308 114.365 608.521 110.509C612.056 106.332 613.823 101.994 613.823 97.4953C613.502 94.282 612.217 92.0326 609.967 90.7473C608.039 89.462 605.629 88.98 602.737 89.3013C599.845 89.3013 596.793 89.944 593.579 91.2293C590.366 92.5146 587.313 93.9607 584.421 95.5673Z" fill="black"/>
<path d="M490.375 78.2153C483.948 79.5007 477.682 80.786 471.577 82.0713C465.793 83.3567 461.776 85.2847 459.527 87.8553C456.313 92.0327 455.189 96.3707 456.153 100.869C457.438 105.047 459.687 109.224 462.901 113.401C466.435 117.257 470.291 120.953 474.469 124.487C478.646 127.701 482.02 130.432 484.591 132.681C488.768 136.216 492.624 139.911 496.159 143.767C500.015 147.302 503.549 151.801 506.763 157.263C508.691 160.798 509.655 164.333 509.655 167.867C509.976 171.081 509.655 174.294 508.691 177.507C508.048 180.399 506.923 183.131 505.317 185.701C504.031 188.272 502.907 190.2 501.943 191.485C500.336 194.056 497.123 196.948 492.303 200.161C487.804 203.375 482.502 206.427 476.397 209.319C470.291 211.89 463.704 214.139 456.635 216.067C449.887 217.995 443.46 218.959 437.355 218.959C430.928 218.959 425.465 218.477 420.967 217.513C416.789 216.228 413.415 213.497 410.845 209.319C409.559 207.713 408.756 205.303 408.435 202.089C408.435 198.555 408.917 195.823 409.881 193.895C410.845 191.967 412.933 191.325 416.147 191.967C419.681 192.289 422.734 192.449 425.305 192.449C429.482 192.449 434.141 192.128 439.283 191.485C444.424 190.521 449.244 189.236 453.743 187.629C458.563 185.701 462.74 183.613 466.275 181.363C469.809 179.114 472.219 176.543 473.505 173.651C475.433 169.153 473.826 164.493 468.685 159.673C465.793 156.781 462.901 154.211 460.009 151.961C457.117 149.391 454.064 146.82 450.851 144.249C446.031 140.393 441.371 136.698 436.873 133.163C432.695 129.307 428.679 124.648 424.823 119.185C422.252 115.329 420.645 110.991 420.003 106.171C419.681 101.03 420.163 96.0493 421.449 91.2293C422.734 86.4093 424.501 81.9107 426.751 77.7333C429.321 73.556 432.213 70.0213 435.427 67.1293C438.961 64.2373 443.139 61.6667 447.959 59.4173C453.1 57.168 458.241 55.24 463.383 53.6333C468.845 52.0267 474.147 50.902 479.289 50.2593C484.43 49.2953 488.768 48.6527 492.303 48.3313C494.231 48.01 496.641 48.01 499.533 48.3313C502.425 48.3313 505.156 48.8133 507.727 49.7773C510.619 50.42 513.029 51.7053 514.957 53.6333C517.206 55.24 518.491 57.65 518.813 60.8633C519.777 65.0407 519.134 68.0933 516.885 70.0213C514.635 72.592 511.101 74.3593 506.281 75.3233C501.461 76.2873 496.159 77.2513 490.375 78.2153Z" fill="black"/>
<path d="M395.221 176.543C399.399 179.757 401.648 183.773 401.969 188.593C402.291 193.092 401.166 197.109 398.595 200.643C396.346 204.178 393.133 206.749 388.955 208.355C385.099 209.641 381.083 208.677 376.905 205.463C371.443 201.286 367.105 196.627 363.891 191.485C360.678 186.023 357.786 180.078 355.215 173.651C354.251 171.402 353.287 168.51 352.323 164.975C351.359 161.119 350.235 157.263 348.949 153.407C347.985 149.551 346.861 145.856 345.575 142.321C344.29 138.787 342.683 136.055 340.755 134.127C339.791 134.77 338.827 135.413 337.863 136.055C337.221 136.698 336.578 137.501 335.935 138.465C333.686 141.036 331.758 145.053 330.151 150.515C328.866 155.978 327.902 160.477 327.259 164.011C325.331 170.438 323.564 176.704 321.957 182.809C320.351 188.593 318.744 194.699 317.137 201.125C316.495 204.339 314.727 207.07 311.835 209.319C309.265 211.569 306.212 213.015 302.677 213.657C299.464 214.3 296.251 213.979 293.037 212.693C289.824 211.408 287.575 208.998 286.289 205.463C282.755 197.43 280.184 188.593 278.577 178.953C276.97 168.992 276.167 158.87 276.167 148.587C276.167 138.305 276.97 128.343 278.577 118.703C280.184 108.742 282.433 99.584 285.325 91.2294C287.253 86.4094 290.306 83.196 294.483 81.5894C298.661 79.6614 302.838 79.1794 307.015 80.1434C311.193 81.1074 314.406 83.3567 316.655 86.8914C319.226 90.1047 319.547 94.282 317.619 99.4234C316.977 101.994 316.173 104.565 315.209 107.135C314.567 109.385 314.085 111.795 313.763 114.365C317.941 109.867 322.439 106.171 327.259 103.279C332.401 100.387 337.863 99.2627 343.647 99.9054C352.323 101.191 359.071 104.565 363.891 110.027C369.033 115.49 373.371 122.077 376.905 129.789C378.833 133.967 380.601 139.429 382.207 146.177C384.135 152.604 386.063 158.067 387.991 162.565C388.634 164.172 389.598 166.743 390.883 170.277C392.169 173.491 393.615 175.579 395.221 176.543Z" fill="black"/>
<path d="M155.287 149.551C154.644 142.161 154.001 134.609 153.359 126.897C153.037 119.185 153.359 111.473 154.323 103.761C154.965 99.2626 155.608 94.9246 156.251 90.7473C157.215 86.2486 158.5 81.9106 160.107 77.7333C161.071 75.8053 162.517 74.3593 164.445 73.3953C166.694 72.4313 169.104 71.7886 171.675 71.4673C174.246 71.146 176.655 71.3066 178.905 71.9493C181.475 72.592 183.243 73.7166 184.207 75.3233C187.42 79.5006 189.027 85.606 189.027 93.6393C189.348 101.673 189.509 108.742 189.509 114.847C189.509 122.238 189.669 130.593 189.991 139.911C190.633 148.909 192.401 156.621 195.293 163.047C196.899 165.939 198.667 168.189 200.595 169.795C202.523 171.081 205.254 171.563 208.789 171.241C213.609 171.241 217.465 168.831 220.357 164.011C223.57 159.191 225.98 153.407 227.587 146.659C229.515 139.911 230.8 133.163 231.443 126.415C232.407 119.346 232.889 113.562 232.889 109.063C232.889 105.85 232.728 102.155 232.407 97.9773C232.085 93.4786 232.085 89.3013 232.407 85.4453C233.049 81.5893 234.496 78.376 236.745 75.8053C238.994 72.9133 242.69 71.4673 247.831 71.4673C251.366 71.146 254.418 71.7886 256.989 73.3953C259.881 75.002 261.648 76.6086 262.291 78.2153C263.898 83.678 264.701 89.7833 264.701 96.5313C265.022 103.279 265.183 109.385 265.183 114.847C265.183 121.274 264.701 128.825 263.737 137.501C263.094 145.856 262.13 151.801 260.845 155.335C258.274 162.083 255.864 168.671 253.615 175.097C251.687 181.524 247.509 187.308 241.083 192.449C232.407 199.197 223.088 202.893 213.127 203.535C203.165 204.178 194.007 202.411 185.653 198.233C177.298 193.735 170.229 187.308 164.445 178.953C158.661 170.599 155.608 160.798 155.287 149.551Z" fill="black"/>
<path d="M119.536 89.3012C123.071 89.9439 125.641 91.7112 127.248 94.6032C129.176 97.1739 130.301 100.227 130.622 103.761C131.265 107.296 131.425 110.831 131.104 114.365C130.783 117.9 130.301 120.953 129.658 123.523C127.409 135.734 124.195 147.784 120.018 159.673C116.162 171.563 112.145 183.452 107.968 195.341C103.791 206.909 99.774 218.638 95.918 230.527C92.3833 242.417 89.652 254.467 87.724 266.677C87.0813 270.212 86.76 273.747 86.76 277.281C86.76 280.816 86.278 284.029 85.314 286.921C84.6713 289.813 83.386 292.223 81.458 294.151C79.53 296.401 76.156 297.686 71.336 298.007C64.9093 298.329 60.25 296.401 57.358 292.223C54.466 288.367 52.6987 283.226 52.056 276.799C51.4133 270.373 51.7347 263.303 53.02 255.591C54.3053 247.558 55.7513 239.846 57.358 232.455C59.286 225.065 61.214 218.317 63.142 212.211C65.07 206.106 66.516 201.607 67.48 198.715C68.7653 195.181 69.7293 191.646 70.372 188.111C71.0147 184.577 71.6573 180.721 72.3 176.543C68.7653 178.471 65.2307 180.721 61.696 183.291C58.4827 185.541 55.1087 187.308 51.574 188.593C46.4327 190.2 40.488 190.521 33.74 189.557C26.992 188.272 22.172 185.701 19.28 181.845C16.388 177.989 13.8173 173.33 11.568 167.867C9.31867 162.405 7.39067 156.781 5.784 150.997C4.17733 144.892 2.892 139.108 1.928 133.645C1.28533 127.861 0.803333 122.72 0.481999 118.221C0.160667 113.08 0 109.063 0 106.171C0.321333 103.279 0.803333 99.7446 1.446 95.5672C2.08867 91.3899 4.01667 87.5339 7.23 83.9992C10.7647 80.1432 14.7813 78.2152 19.28 78.2152C25.3853 77.8939 28.92 79.9826 29.884 84.4812C31.1693 88.6586 32.1333 95.0852 32.776 103.761C32.776 106.653 32.9367 110.188 33.258 114.365C33.5793 118.543 34.0613 122.72 34.704 126.897C35.3467 131.075 36.15 135.091 37.114 138.947C38.3993 142.803 40.006 145.856 41.934 148.105C44.1833 150.997 47.236 152.604 51.092 152.925C55.2693 152.925 59.4467 151.64 63.624 149.069C68.1227 146.177 72.6213 141.839 77.12 136.055C81.6187 130.271 85.796 122.881 89.652 113.883C90.9373 110.67 92.3833 107.457 93.99 104.243C95.918 101.03 98.0067 98.2986 100.256 96.0492C102.827 93.4786 105.558 91.5506 108.45 90.2652C111.663 88.9799 115.359 88.6586 119.536 89.3012Z" fill="black"/>
<path d="M16.6048 94.3665C16.4578 100.983 16.3108 107.6 16.235 113.582C16.1593 119.564 16.1593 124.711 16.3063 128.538C16.6789 138.237 18.3872 142.026 19.1981 146.7C19.9321 150.93 23.2707 156.124 26.753 161.609C29.7995 166.408 32.3428 168.774 34.1162 169.81C39.4807 172.944 48.1787 172.343 54.907 171.826C59.6052 171.465 62.7849 170.561 67.1605 169.897C71.5343 169.233 74.6641 165.526 80.3586 159.539C84.0343 155.675 90.001 147.988 93.6971 143.316C98.578 137.146 99.9241 134.919 101.181 133.442C103.33 130.915 106.443 127.21 110.224 123.358C113.663 119.854 116.103 114.302 117.449 112.341C118.173 111.286 115.56 119.497 113.768 124.659C111.977 129.821 110.213 134.086 107.613 139.223C105.013 144.361 101.631 150.242 99.5944 153.934C96.8605 158.89 95.3346 161.636 91.643 168.273C88.754 173.467 84.7164 182.85 82.0786 190.269C79.4407 197.688 78.5585 202.981 77.8834 206.517C77.2084 210.053 76.7672 211.67 75.9518 216.4C75.1364 221.13 73.9601 228.923 73.3541 239.408C72.7481 249.892 72.7481 262.832 72.7481 276.164" stroke="#FF0000" stroke-width="2" stroke-linecap="round"/>
<path d="M167.657 90.3562C166.775 91.2385 165.585 96.6924 164.545 111.105C163.866 120.498 164.386 134.193 164.683 142.193C164.979 150.193 165.42 152.105 166.677 155.075C167.933 158.044 169.992 162.015 172.376 165.677C174.76 169.34 177.406 172.575 180.608 175.638C187.135 181.884 193.184 185.403 196.522 187.036C198.702 188.103 204.003 187.939 212.155 187.13C224.941 185.861 226.91 178.742 229.359 175.554C231.83 172.337 232.413 168.052 232.783 164.866C233.139 161.804 235.073 155.901 237.448 148.335C238.965 143.505 239.244 140.716 239.69 138.644C240.25 136.039 240.282 131.969 240.951 125.388C241.928 115.766 241.472 107.462 241.918 103.16C242.363 98.2385 242.96 95.4136 243.034 94.0055C243.107 93.3327 243.254 92.7445 243.406 92.1385" stroke="#FF0000" stroke-width="2" stroke-linecap="round"/>
<path d="M298.212 92.5842C296.595 104.053 294.977 115.523 294.071 122.387C293.164 129.251 293.017 131.163 292.721 133.03C292.424 134.897 291.983 136.661 291.609 145.437C291.235 154.213 290.94 169.946 291.01 178.566C291.087 188.228 292.268 190.011 292.714 190.683C293.242 191.481 293.601 182.948 294.862 173.522C295.337 169.97 295.681 168.948 296.789 165.33C299.788 155.53 301.924 147.997 302.441 145.626C303.529 140.635 306.955 134.362 310.972 127.879C312.219 125.865 313.95 124.969 316.753 123.122C322.447 119.37 328.2 117.982 331.016 118.056C332.363 118.091 333.538 118.276 338.335 120.043C343.131 121.81 351.513 125.192 356.713 127.816C361.913 130.441 363.677 132.205 364.807 133.629C365.936 135.053 366.377 136.082 367.928 141.612C369.479 147.141 372.125 157.14 374.077 165.746C376.029 174.353 377.205 181.264 378.032 185.486C379.299 191.031 380.489 194.012 381.75 196.683C382.276 197.737 382.57 198.178 382.873 198.187" stroke="#FF0000" stroke-width="2" stroke-linecap="round"/>
<path d="M491.595 60.5024C485.125 61.6788 478.704 63.167 471.305 65.0184C461.649 67.4347 454.478 68.6655 452.029 69.7772C449.032 71.1381 444.693 77.39 441.547 83.285C439.377 87.3518 439.462 94.937 439.092 100.36C438.865 103.681 439.898 108.153 441.382 112.384C442.115 114.473 445.08 117.657 449.677 122.625C453.21 126.445 456.969 129.109 460.232 131.261C462.211 132.566 466.901 134.892 473.502 139.043C478.292 142.054 479.858 144.713 480.818 146.558C482.721 150.213 483.721 155.238 484.091 159.393C484.576 164.839 485.802 172.018 485.287 176.913C484.895 180.648 479.595 183.465 471.682 187.388C466.945 189.737 460.386 192.047 455.436 193.776C447.324 196.609 443.182 197.296 441.554 197.369C439.631 197.59 437.1 198.183 433.549 198.925C431.468 199.225 428.821 199.372 426.094 199.524" stroke="#FF0000" stroke-width="2" stroke-linecap="round"/>
<path d="M523.231 128.676C526.466 131.029 529.701 133.382 534.602 135.182C539.504 136.982 545.973 138.158 554.306 138.764C562.638 139.37 572.637 139.37 578.523 139.003C585.947 138.539 589.306 135.672 592.57 133.076C596.595 129.875 601.921 126.618 607.419 123.271C617.576 117.09 619.468 115.318 622.95 111.987C626.807 108.297 627.644 103.438 628.014 101.215C629.115 94.5943 628.246 84.1448 625.726 80.2683C623.585 76.9753 618.461 76.4006 611.556 74.1749C609.013 73.355 604.509 73.4241 597.988 73.7917C587.579 74.3785 583.696 77.7284 579.022 81.2062C574.826 84.3287 571.229 86.9252 567.874 89.5297C564.529 92.1257 562.897 97.6103 560.078 103.695C557.703 108.822 556.801 113.66 556.135 116.403C555.559 118.775 554.867 126.823 555.014 138.178C555.087 143.816 556.347 146.633 557.385 149.449C558.294 151.916 561.079 157.741 565.53 165.089C567.887 168.98 569.861 170.258 571.196 171.443C572.375 172.49 578.425 176.616 587.923 181.961C593.058 184.851 598.057 185.408 606.044 186.299C610.923 186.843 617.56 186.602 623.984 185.278C630.407 183.955 636.435 181.308 639.835 179.724C643.235 178.14 643.823 177.699 644.875 176.799" stroke="#FF0000" stroke-width="2" stroke-linecap="round"/>
<path d="M675.174 92.1386C675.174 91.9916 675.174 91.8445 675.248 98.0181C675.321 104.192 675.468 116.69 675.912 125.481C676.355 134.273 677.09 138.978 677.69 142.064C678.553 146.511 679.92 150.924 682.578 157.882C686.077 167.041 691.799 172.33 693.726 174.703C695.251 176.58 699.793 180.038 705.877 184.492C710.743 188.054 714.073 188.972 722.589 189.055C732.204 189.148 737.368 184.098 741.552 179.348C745.171 175.24 746.311 170.57 748.234 167.101C751.823 160.626 752.999 154.533 753.666 151.793C754.374 148.878 755.227 144.156 756.261 135.137C756.925 129.344 758.177 121.119 758.857 116.583C759.89 109.685 760.717 104.348 761.615 99.21C762.063 96.4518 762.21 94.8165 762.506 93.9276C762.655 93.4798 762.802 93.0387 762.954 92.5842" stroke="#FF0000" stroke-width="2" stroke-linecap="round"/>
<path d="M826.226 11.0427C824.609 19.7182 822.991 28.3937 821.57 37.7152C820.148 47.0368 818.972 56.7416 818.366 62.7703C817.76 68.799 817.76 70.8576 817.393 82.1375C817.025 93.4174 816.29 113.856 816.573 126.885C816.856 139.914 818.179 144.913 819.155 148.224C820.577 153.049 822.207 158.196 823.764 164.207C825.127 169.467 826.957 173.511 829.336 179.08C830.935 182.822 832.304 187.163 832.983 192.156C833.057 193.13 833.204 193.865 833.427 194.611C833.65 195.357 833.944 196.093 834.247 196.85" stroke="#FF0000" stroke-width="2" stroke-linecap="round"/>
</svg>
